<?xml version="1.0" standalone="no"?>
<!DOCTYPE svg PUBLIC "-//W3C//DTD SVG 20010904//EN"
 "http://www.w3.org/TR/2001/REC-SVG-20010904/DTD/svg10.dtd">
<svg version="1.0" xmlns="http://www.w3.org/2000/svg"
 width="260.000000pt" height="260.000000pt" viewBox="0 0 260.000000 260.000000"
 preserveAspectRatio="xMidYMid meet">
<metadata>
Created by potrace 1.11, written by Peter Selinger 2001-2013
</metadata>
<g transform="translate(0.000000,260.000000) scale(0.100000,-0.100000)"
fill="#000000" stroke="none">
<path d="M150 2587 c-49 -16 -123 -93 -138 -143 -17 -57 -18 -2228 -1 -2285
17 -55 65 -108 123 -135 l51 -24 1115 0 c1101 0 1116 1 1160 21 60 27 88 54
116 114 l24 50 0 1115 0 1115 -24 51 c-27 58 -80 106 -135 123 -53 16 -2241
14 -2291 -2z m786 -142 c105 -19 196 -45 290 -83 l69 -29 45 19 c288 124 575
140 776 43 55 -27 78 -33 106 -29 106 18 191 -81 159 -186 -9 -31 -8 -46 9
-95 33 -96 45 -222 31 -335 -14 -116 -48 -247 -90 -349 l-31 -74 35 -88 c202
-504 61 -923 -345 -1025 -85 -22 -249 -21 -363 0 -49 9 -139 35 -200 58 -62
22 -121 40 -132 40 -11 0 -70 -18 -132 -40 -61 -23 -151 -49 -200 -58 -106
-20 -266 -22 -348 -5 -70 15 -175 61 -221 96 -23 17 -45 25 -74 25 -88 0 -150
58 -150 139 0 23 6 54 14 69 12 24 12 35 0 82 -45 175 -18 401 76 636 l28 71
-33 84 c-146 366 -119 686 74 880 144 144 355 197 607 154z"/>
<path d="M679 2340 c-204 -32 -334 -146 -384 -337 -17 -67 -20 -223 -4 -309
13 -76 58 -224 67 -224 4 0 30 37 59 83 153 243 401 491 655 654 l89 58 -53
18 c-146 50 -321 73 -429 57z"/>
<path d="M1718 2340 c-73 -9 -205 -41 -255 -62 l-33 -14 108 -71 c255 -168
512 -431 653 -666 18 -32 36 -57 40 -57 8 0 57 162 70 235 14 77 6 278 -13
330 -13 34 -20 41 -52 47 -84 18 -129 69 -129 146 0 42 -2 44 -46 66 -85 43
-222 61 -343 46z"/>
<path d="M1203 2154 c-191 -108 -439 -327 -588 -518 -67 -86 -195 -289 -195
-308 0 -6 24 -51 54 -101 173 -294 459 -574 754 -741 l63 -36 47 24 c26 13 88
51 137 83 271 179 523 450 670 720 l28 53 -47 81 c-160 275 -407 532 -672 702
-76 48 -148 87 -161 87 -4 0 -45 -21 -90 -46z m270 -289 c74 -19 145 -56 179
-92 96 -101 96 -300 1 -384 -34 -29 -35 -32 -17 -42 74 -41 121 -146 110 -249
-13 -125 -79 -214 -192 -259 -57 -23 -67 -24 -354 -24 l-295 0 -3 520 c-1 286
0 526 3 533 7 19 492 17 568 -3z"/>
<path d="M1200 1546 l0 -96 53 0 c81 1 139 16 159 40 24 29 23 91 -1 121 -17
22 -29 24 -115 27 l-96 4 0 -96z"/>
<path d="M1200 1140 l0 -100 68 0 c137 1 182 27 182 107 0 33 -6 50 -25 68
-22 23 -31 25 -125 25 l-100 0 0 -100z"/>
<path d="M327 1103 c-15 -49 -32 -112 -37 -142 -13 -72 -13 -241 1 -297 10
-39 15 -45 49 -54 78 -21 116 -76 107 -156 -4 -43 -3 -46 32 -69 126 -84 351
-97 566 -34 131 39 128 34 47 84 -260 160 -500 397 -676 668 -32 48 -59 87
-60 87 -2 0 -15 -39 -29 -87z"/>
<path d="M2188 1127 c-145 -245 -433 -534 -689 -692 -39 -24 -66 -45 -62 -48
4 -3 44 -16 88 -30 226 -71 445 -60 585 28 91 57 164 168 189 283 14 67 14
210 0 288 -12 71 -56 221 -67 228 -4 2 -23 -24 -44 -57z"/>
</g>
</svg>
